<svg xmlns="http://www.w3.org/2000/svg" xml:space="preserve" width="271" height="71" 
viewBox="41.417 23.047 271 71"><g fill="white">
    <path d="M270.887 47.59h9.16v27.881h8.426V47.59h9.111v-6.581h-26.697zM157.647 40.377c-8.514 0-12.192 
    4.691-13.378 6.708l-.189.319v6.948l.216.338c1.367 2.128 3.458 4.537 11.026 6.217l3.278.722c2.888.646 
    3.846 1.453 4.389 2.238v3.1c-.835 1.189-2.65 2.42-5.343 2.42-3.354 
    0-4.871-1.721-5.341-2.412v-4.313h-8.226v6.373l.193.324c1.217 2.026 4.955 6.746 13.374 6.746 8.088 0 
    11.822-4.229 13.329-6.746l.194-.324v-7.701l-.208-.33c-1.618-2.627-4.086-4.703-10.869-6.286l-3.291-.768c-3.175-.729-4.029-1.488-4.496-2.155V49.46c.815-1.186 2.62-2.41 5.341-2.41 2.765 0 4.584 1.269 5.343 2.398v3.918h8.181v-5.962l-.191-.323c-1.19-2.015-4.871-6.704-13.332-6.704M227.506 61.807l-11.488-20.798h-9.041v34.462h8.029V54.586l11.539 20.885h9.036V41.009h-8.075zM303.357 41.009h8.37v34.462h-8.37zM184.789 61.079h14.012v-6.577h-14.012V47.59h15.042v-6.581h-23.412v34.462h23.804v-6.578h-15.434zM250.693 41.009l-9.985 29.847-.022 4.617h6.904l2.854-8.934.082-.254h10.104l2.933 9.188h7.392V71l-10.06-29.99-10.202-.001zm1.856 19.053 3.088-9.555 3.021 9.555h-6.109zM113.389 43.451l-.107-.185-.108-.188H71.877l-5.232 9.159 5.232 9.159h16.957l1.637 2.853-1.291 2.255H68.956l-8.153-14.267 8.153-14.268h41.301l-.108-.186-.107-.19-4.542-7.95h.001l-3.3-5.778H62.897L43.252 58.242l8.452 14.79.107.185.106.188H93.21l5.236-9.158-5.236-9.163-16.971.003-1.628-2.85 1.291-2.259h20.231l8.154 14.269-8.154 14.269H54.837l.108.186.107.189 7.845 13.729h39.304l19.635-34.378z"/></g></svg>




    